<svg width="879" height="499" viewBox="0 0 879 499" fill="none" xmlns="http://www.w3.org/2000/svg">
<mask id="mask0_1338_392" style="mask-type:alpha" maskUnits="userSpaceOnUse" x="0" y="0" width="879" height="499">
<path d="M748.197 498.5H42C18.804 498.5 0 479.696 0 456.5V42C0 18.804 18.804 0 42 0H424.767C441.588 0 456.786 10.0353 463.392 25.504L482.608 70.496C489.214 85.9647 504.412 96 521.233 96H836.5C859.696 96 878.5 114.804 878.5 138V361.495C878.5 372.104 874.486 382.319 867.264 390.089L778.961 485.094C771.014 493.643 759.869 498.5 748.197 498.5Z" fill="#2C1337" fill-opacity="0.65"/>
</mask>
<g mask="url(#mask0_1338_392)">
<circle cx="495.088" cy="101.253" r="63.8979" stroke="white" stroke-opacity="0.19"/>
<circle cx="495.088" cy="101.253" r="124.783" stroke="white" stroke-opacity="0.19"/>
<circle cx="495.674" cy="103.01" r="175.716" stroke="white" stroke-opacity="0.19"/>
<circle cx="493.917" cy="101.253" r="275.826" stroke="white" stroke-opacity="0.19"/>
<circle cx="493.332" cy="101.839" r="338.467" stroke="white" stroke-opacity="0.19"/>
<circle cx="495.088" cy="102.424" r="411.647" stroke="white" stroke-opacity="0.19"/>
<circle cx="488.648" cy="115.889" r="448.529" stroke="white" stroke-opacity="0.19"/>
<circle cx="470.5" cy="123.5" r="510" stroke="white" stroke-opacity="0.19"/>
</g>
</svg>
