<svg width="899" height="519" viewBox="0 0 899 519" fill="none" xmlns="http://www.w3.org/2000/svg">
<g filter="url(#filter0_b_1338_339)">
<path d="M758.197 508.5H52C28.804 508.5 10 489.696 10 466.5V52C10 28.804 28.804 10 52 10H434.767C451.588 10 466.786 20.0353 473.392 35.504L492.608 80.496C499.214 95.9647 514.412 106 531.233 106H846.5C869.696 106 888.5 124.804 888.5 148V371.495C888.5 382.104 884.486 392.319 877.264 400.089L788.961 495.094C781.014 503.643 769.869 508.5 758.197 508.5Z" fill="#2C1337" fill-opacity="0.65"/>
<path d="M52 513.5H758.197C771.258 513.5 783.731 508.065 792.623 498.498L880.926 403.493C889.008 394.798 893.5 383.367 893.5 371.495V148C893.5 122.043 872.457 101 846.5 101H531.233C516.415 101 503.026 92.1594 497.206 78.5322L477.991 33.5402C470.598 16.23 453.59 5 434.767 5H52C26.0426 5 5 26.0426 5 52V466.5C5 492.457 26.0426 513.5 52 513.5Z" stroke="white" stroke-opacity="0.19" stroke-width="10"/>
</g>
<defs>
<filter id="filter0_b_1338_339" x="-66" y="-66" width="1030.5" height="650.5" filterUnits="userSpaceOnUse" color-interpolation-filters="sRGB">
<feFlood flood-opacity="0" result="BackgroundImageFix"/>
<feGaussianBlur in="BackgroundImageFix" stdDeviation="33"/>
<feComposite in2="SourceAlpha" operator="in" result="effect1_backgroundBlur_1338_339"/>
<feBlend mode="normal" in="SourceGraphic" in2="effect1_backgroundBlur_1338_339" result="shape"/>
</filter>
</defs>
</svg>
